:FULLY-SPECIFIED
:FORCE-ALL-JOINTS-BE-3DOF
:DEGREES
408
root 3.88331 15.9164 -11.6526 4.0383 -30.2634 -5.78005
lfemur -24.365 10.0951 -2.15759
ltibia 54.6064 -0 0
lfoot -15.8244 9.8538 0.618208
ltoes -5.39586 0 0
rfemur -35.0761 -0.548974 6.63349
rtibia 46.1902 -0 0
rfoot 3.0221 -0.480553 0.107909
rtoes -12.2927 0 0
lowerback 5.41692 2.10938 2.7686
upperback 2.12666 2.91738 -0.631404
thorax -0.635351 1.4735 -2.44921
lowerneck -6.39684 3.08804 8.31444
upperneck 3.32217 3.46533 -1.54395
head 2.50551 1.81711 -1.77448
lclavicle -2.64665e-14 1.18208e-14 -1.94764e-31
lhumerus -44.0032 -22.7364 96.5726
lradius 49.46 -0 0
lwrist 13.9959 0 0
lhand -19.2143 0.956104 0.263445
lfingers 7.12502 -0 0
lthumb 7.10222 30.7935 0.256747
rclavicle -2.64665e-14 1.18208e-14 -1.94764e-31
rhumerus -45.6033 2.5118 -88.0183
rradius 69.8478 -0 0
rwrist 10.4431 0 0
rhand -36.1326 -25.2413 0.077799
rfingers 7.12502 -0 0
rthumb -9.2283 -55.1238 0.0254852
409
root 3.83164 15.9114 -11.5261 3.98045 -30.5317 -5.84414
lfemur -24.6667 10.0482 -2.19552
ltibia 54.6463 -0 0
lfoot -16.2845 9.60763 0.5791
ltoes -5.6272 0 0
rfemur -35.0757 -0.237079 6.40763
rtibia 46.1916 -0 0
rfoot 3.21037 -0.35011 0.100954
rtoes -12.4538 0 0
lowerback 5.51157 2.14778 2.80456
upperback 2.12561 2.97335 -0.650351
thorax -0.686549 1.5003 -2.49071
lowerneck -6.38837 3.19334 8.42156
upperneck 3.36918 3.60211 -1.63213
head 2.52157 1.88426 -1.81769
lclavicle -2.6378e-14 1.16631e-14 -1.79764e-31
lhumerus -43.9685 -22.6984 96.4717
lradius 49.3864 -0 0
lwrist 13.9025 0 0
lhand -19.4305 0.824555 0.244126
lfingers 7.12502 -0 0
lthumb 6.8937 30.677 0.240103
rclavicle -2.6378e-14 1.16631e-14 -1.79764e-31
rhumerus -45.7567 2.46988 -88.0181
rradius 69.7437 -0 0
rwrist 10.5494 0 0
rhand -35.8554 -25.0298 0.0698711
rfingers 7.12502 -0 0
rthumb -8.96117 -54.9217 0.0200117
410
root 3.78181 15.9067 -11.4013 3.92248 -30.7586 -5.90567
lfemur -24.9619 9.99419 -2.23813
ltibia 54.6829 -0 0
lfoot -16.7342 9.36356 0.53933
ltoes -5.84573 0 0
rfemur -35.0833 0.068145 6.18898
rtibia 46.2004 -0 0
rfoot 3.39483 -0.219821 0.0938894
rtoes -12.6115 0 0
lowerback 5.60377 2.18434 2.8384
upperback 2.12409 3.02676 -0.668218
thorax -0.736992 1.5258 -2.52975
lowerneck -6.38106 3.29212 8.52273
upperneck 3.41652 3.73047 -1.71658
head 2.53773 1.94721 -1.85914
lclavicle -2.62885e-14 1.15066e-14 -1.65034e-31
lhumerus -43.9357 -22.6647 96.379
lradius 49.3168 -0 0
lwrist 13.8089 0 0
lhand -19.6329 0.696606 0.224783
lfingers 7.12502 -0 0
lthumb 6.69862 30.563 0.22324
rclavicle -2.62885e-14 1.15066e-14 -1.65034e-31
rhumerus -45.9036 2.43987 -88.0204
rradius 69.6491 -0 0
rwrist 10.6567 0 0
rhand -35.5754 -24.8215 0.062078
rfingers 7.12502 -0 0
rthumb -8.69146 -54.722 0.0148089
411
root 3.7339 15.9023 -11.2785 3.86436 -30.9427 -5.96453
lfemur -25.2503 9.93285 -2.2855
ltibia 54.716 -0 0
lfoot -17.173 9.1217 0.499042
ltoes -6.05098 0 0
rfemur -35.0991 0.366345 5.9778
rtibia 46.2167 -0 0
rfoot 3.57529 -0.0897247 0.0867419
rtoes -12.7655 0 0
lowerback 5.69341 2.219 2.87004
upperback 2.12209 3.07751 -0.684963
thorax -0.786636 1.54996 -2.56625
lowerneck -6.375 3.38407 8.61763
upperneck 3.46421 3.8501 -1.79716
head 2.55401 2.0058 -1.89876
lclavicle -2.61985e-14 1.13515e-14 -1.50602e-31
lhumerus -43.9047 -22.6353 96.2946
lradius 49.2514 -0 0
lwrist 13.7151 0 0
lhand -19.8207 0.572464 0.205514
lfingers 7.12502 -0 0
lthumb 6.51739 30.4514 0.206219
rclavicle -2.61985e-14 1.13515e-14 -1.50602e-31
rhumerus -46.0439 2.42213 -88.0252
rradius 69.5643 -0 0
rwrist 10.765 0 0
rhand -35.2928 -24.6164 0.0544705
rfingers 7.12502 -0 0
rthumb -8.41917 -54.5248 0.00992323
412
root 3.68798 15.8983 -11.1577 3.806 -31.0826 -6.02069
lfemur -25.5316 9.86396 -2.33774
ltibia 54.7456 -0 0
lfoot -17.6005 8.88217 0.458382
ltoes -6.24242 0 0
rfemur -35.1231 0.657173 5.77431
rtibia 46.2408 -0 0
rfoot 3.75158 0.0401403 0.0795386
rtoes -12.9158 0 0
lowerback 5.78039 2.25169 2.89939
upperback 2.11961 3.12551 -0.700551
thorax -0.835438 1.57274 -2.6001
lowerneck -6.37026 3.469 8.70609
upperneck 3.51231 3.96071 -1.87378
head 2.5704 2.05988 -1.93649
lclavicle -2.6108e-14 1.1198e-14 -1.36493e-31
lhumerus -43.8754 -22.6105 96.2189
lradius 49.1903 -0 0
lwrist 13.6212 0 0
lhand -19.9937 0.452238 0.1864
lfingers 7.12502 -0 0
lthumb 6.35052 30.3424 0.189102
rclavicle -2.6108e-14 1.1198e-14 -1.36493e-31
rhumerus -46.1772 2.41706 -88.0327
rradius 69.4897 -0 0
rwrist 10.8744 0 0
rhand -35.0075 -24.4148 0.0471015
rfingers 7.12502 -0 0
rthumb -8.14432 -54.3303 0.00540288
413
root 3.64413 15.8945 -11.0391 3.74737 -31.177 -6.0741
lfemur -25.8055 9.7873 -2.39492
ltibia 54.7716 -0 0
lfoot -18.0163 8.64506 0.4175
ltoes -6.41957 0 0
rfemur -35.1554 0.940282 5.57876
rtibia 46.2729 -0 0
rfoot 3.9235 0.169736 0.0723079
rtoes -13.0622 0 0
lowerback 5.86459 2.28237 2.92635
upperback 2.11662 3.17067 -0.71494
thorax -0.883354 1.59409 -2.63121
lowerneck -6.36691 3.54668 8.78787
upperneck 3.56082 4.06192 -1.94624
head 2.58692 2.1093 -1.97226
lclavicle -2.60171e-14 1.10463e-14 -1.22733e-31
lhumerus -43.8481 -22.5905 96.1522
lradius 49.1336 -0 0
lwrist 13.5271 0 0
lhand -20.1512 0.336074 0.167529
lfingers 7.12502 -0 0
lthumb 6.19846 30.2361 0.171957
rclavicle -2.60171e-14 1.10463e-14 -1.22733e-31
rhumerus -46.3033 2.42501 -88.043
rradius 69.4254 -0 0
rwrist 10.9847 0 0
rhand -34.7195 -24.2168 0.0400267
rfingers 7.12502 -0 0
rthumb -7.86691 -54.1386 0.00129817
414
root 3.60242 15.8911 -10.9227 3.68848 -31.2244 -6.12464
lfemur -26.0717 9.70262 -2.45715
ltibia 54.7938 -0 0
lfoot -18.4198 8.41049 0.376554
ltoes -6.58192 0 0
rfemur -35.1962 1.21533 5.39139
rtibia 46.3133 -0 0
rfoot 4.09086 0.299023 0.0650789
rtoes -13.2044 0 0
lowerback 5.9459 2.31096 2.95085
upperback 2.11312 3.21289 -0.728089
thorax -0.930343 1.61397 -2.6595
lowerneck -6.36505 3.61687 8.86275
upperneck 3.60977 4.15346 -2.01443
head 2.60357 2.15391 -2.006
lclavicle -2.59261e-14 1.08965e-14 -1.09344e-31
lhumerus -43.8227 -22.5752 96.0947
lradius 49.0814 -0 0
lwrist 13.433 0 0
lhand -20.2928 0.224113 0.14899
lfingers 7.12502 -0 0
lthumb 6.06171 30.1325 0.154849
rclavicle -2.59261e-14 1.08965e-14 -1.09344e-31
rhumerus -46.4219 2.44636 -88.0562
rradius 69.372 -0 0
rwrist 11.0962 0 0
rhand -34.4289 -24.0227 0.0333038
rfingers 7.12502 -0 0
rthumb -7.58697 -53.9499 -0.00233866
415
root 3.56292 15.8881 -10.8086 3.62926 -31.2235 -6.17231
lfemur -26.3297 9.60972 -2.52451
ltibia 54.8121 -0 0
lfoot -18.8105 8.17856 0.3357
ltoes -6.72902 0 0
rfemur -35.2455 1.48197 5.21245
rtibia 46.3621 -0 0
rfoot 4.2535 0.427965 0.0578818
rtoes -13.3424 0 0
lowerback 6.02421 2.33741 2.97279
upperback 2.10909 3.25206 -0.739959
thorax -0.97636 1.63234 -2.68486
lowerneck -6.36473 3.67934 8.93051
upperneck 3.65922 4.23501 -2.07824
head 2.62037 2.19355 -2.03765
lclavicle -2.58352e-14 1.07487e-14 -9.63483e-32
lhumerus -43.7993 -22.565 96.0466
lradius 49.034 -0 0
lwrist 13.3387 0 0
lhand -20.4179 0.116498 0.130868
lfingers 7.12502 -0 0
lthumb 5.94074 30.0319 0.137844
rclavicle -2.58352e-14 1.07487e-14 -9.63483e-32
rhumerus -46.5329 2.48147 -88.0725
rradius 69.3296 -0 0
rwrist 11.2086 0 0
rhand -34.1357 -23.8326 0.0269934
rfingers 7.12502 -0 0
rthumb -7.3045 -53.7644 -0.00545333
416
root 3.52571 15.8854 -10.6969 3.56972 -31.1729 -6.21705
lfemur -26.5793 9.50837 -2.59711
ltibia 54.8265 -0 0
lfoot -19.1882 7.94936 0.295102
ltoes -6.86026 0 0
rfemur -35.3034 1.73986 5.04219
rtibia 46.4197 -0 0
rfoot 4.41121 0.556524 0.050748
rtoes -13.4759 0 0
lowerback 6.09942 2.36166 2.99209
upperback 2.10453 3.28809 -0.75051
thorax -1.02136 1.64915 -2.7072
lowerneck -6.36603 3.73386 8.99091
upperneck 3.70918 4.30628 -2.13753
head 2.63731 2.22808 -2.06714
lclavicle -2.57445e-14 1.06032e-14 -8.37664e-32
lhumerus -43.7779 -22.56 96.0084
lradius 48.9915 -0 0
lwrist 13.2443 0 0
lhand -20.5262 0.0133434 0.113245
lfingers 7.12502 -0 0
lthumb 5.83601 29.9341 0.121003
rclavicle -2.57445e-14 1.06032e-14 -8.37664e-32
rhumerus -46.6361 2.53073 -88.0919
rradius 69.2987 -0 0
rwrist 11.3221 0 0
rhand -33.8399 -23.6468 0.0211584
rfingers 7.12502 -0 0
rthumb -7.01951 -53.5821 -0.00798952
417
root 3.49085 15.8831 -10.5877 3.50985 -31.0713 -6.25881
lfemur -26.8202 9.39835 -2.67504
ltibia 54.8368 -0 0
lfoot -19.5522 7.723 0.254926
ltoes -6.9752 0 0
rfemur -35.3701 1.98868 4.88087
rtibia 46.4861 -0 0
rfoot 4.56383 0.68466 0.0437096
rtoes -13.6048 0 0
lowerback 6.17142 2.38364 3.00867
upperback 2.09943 3.32089 -0.7597
thorax -1.06531 1.66436 -2.72644
lowerneck -6.36903 3.7802 9.04373
upperneck 3.75968 4.36693 -2.19217
head 2.6544 2.25732 -2.09441
lclavicle -2.56541e-14 1.04602e-14 -7.1617e-32
lhumerus -43.7587 -22.5603 95.9802
lradius 48.954 -0 0
lwrist 13.1499 0 0
lhand -20.6171 -0.0851393 0.0962161
lfingers 7.12502 -0 0
lthumb 5.74804 29.8395 0.104402
rclavicle -2.56541e-14 1.04602e-14 -7.1617e-32
rhumerus -46.731 2.59451 -88.1147
rradius 69.2795 -0 0
rwrist 11.4366 0 0
rhand -33.5414 -23.4653 0.0158642
rfingers 7.12502 -0 0
rthumb -6.73202 -53.4034 -0.00988884
418
root 3.45843 15.8812 -10.4811 3.44964 -30.9172 -6.29759
lfemur -27.052 9.27944 -2.75841
ltibia 54.8429 -0 0
lfoot -19.9021 7.49957 0.215341
ltoes -7.07334 0 0
rfemur -35.4457 2.22809 4.72875
rtibia 46.5617 -0 0
rfoot 4.71115 0.812338 0.0367996
rtoes -13.7289 0 0
lowerback 6.24009 2.4033 3.02244
upperback 2.09378 3.35036 -0.76749
thorax -1.10816 1.67793 -2.74246
lowerneck -6.37379 3.81811 9.08874
upperneck 3.81075 4.41666 -2.24204
head 2.67165 2.28115 -2.11939
lclavicle -2.55643e-14 1.03198e-14 -5.99179e-32
lhumerus -43.7415 -22.566 95.9623
lradius 48.9216 -0 0
lwrist 13.0555 0 0
lhand -20.69 -0.178849 0.0798563
lfingers 7.12502 -0 0
lthumb 5.67729 29.7481 0.0880991
rclavicle -2.55643e-14 1.03198e-14 -5.99179e-32
rhumerus -46.8176 2.67315 -88.1408
rradius 69.2724 -0 0
rwrist 11.5521 0 0
rhand -33.2404 -23.2884 0.0111789
rfingers 7.12502 -0 0
rthumb -6.44203 -53.2283 -0.0110908
419
root 3.42852 15.8797 -10.3773 3.3891 -30.7093 -6.33334
lfemur -27.2744 9.15144 -2.84732
ltibia 54.8447 -0 0
lfoot -20.2375 7.27917 0.176517
ltoes -7.15419 0 0
rfemur -35.5301 2.45776 4.58609
rtibia 46.6466 -0 0
rfoot 4.853 0.939519 0.0300521
rtoes -13.8481 0 0
lowerback 6.30532 2.42058 3.0333
upperback 2.08755 3.37639 -0.773838
thorax -1.14986 1.68981 -2.75519
lowerneck -6.38037 3.84736 9.12572
upperneck 3.86241 4.45516 -2.28699
head 2.68907 2.29939 -2.14201
lclavicle -2.54753e-14 1.01821e-14 -4.86851e-32
lhumerus -43.7266 -22.5774 95.955
lradius 48.8946 -0 0
lwrist 12.9611 0 0
lhand -20.7445 -0.267641 0.0642457
lfingers 7.12502 -0 0
lthumb 5.62423 29.66 0.0721581
rclavicle -2.54753e-14 1.01821e-14 -4.86851e-32
rhumerus -46.8956 2.76709 -88.1705
rradius 69.2778 -0 0
rwrist 11.6687 0 0
rhand -32.9368 -23.1162 0.00717329
rfingers 7.12502 -0 0
rthumb -6.14956 -53.0569 -0.0115328
420
root 3.40119 15.8786 -10.2762 3.32827 -30.4462 -6.36607
lfemur -27.487 9.01412 -2.94187
ltibia 54.8422 -0 0
lfoot -20.5579 7.06189 0.13863
ltoes -7.21724 0 0
rfemur -35.6237 2.67737 4.45316
rtibia 46.7412 -0 0
rfoot 4.9892 1.06617 0.0235019
rtoes -13.9622 0 0
lowerback 6.36701 2.43541 3.04118
upperback 2.08075 3.39889 -0.778706
thorax -1.19038 1.69996 -2.76453
lowerneck -6.38885 3.86772 9.15445
upperneck 3.91469 4.48211 -2.32692
head 2.70666 2.3119 -2.1622
lclavicle -2.53871e-14 1.00474e-14 -3.79336e-32
lhumerus -43.7139 -22.5945 95.9586
lradius 48.8731 -0 0
lwrist 12.8667 0 0
lhand -20.7802 -0.351372 0.0494611
lfingers 7.12502 -0 0
lthumb 5.58933 29.5752 0.0566413
rclavicle -2.53871e-14 1.00474e-14 -3.79336e-32
rhumerus -46.9648 2.87669 -88.2037
rradius 69.2958 -0 0
rwrist 11.7863 0 0
rhand -32.6305 -22.949 0.00392059
rfingers 7.12502 -0 0
rthumb -5.85461 -52.8895 -0.01115
